<mxfile host="app.diagrams.net" modified="2024-03-22T16:30:38.422Z" agent="Mozilla/5.0 (Windows NT 10.0; Win64; x64) AppleWebKit/537.36 (KHTML, like Gecko) Chrome/121.0.0.0 Safari/537.36" etag="98DNoBh6rojDB-kgj7Mj" version="24.0.7" type="github">
  <diagram id="C5RBs43oDa-KdzZeNtuy" name="Page-1">
    <mxGraphModel dx="651" dy="669" grid="1" gridSize="10" guides="1" tooltips="1" connect="1" arrows="1" fold="1" page="1" pageScale="1" pageWidth="827" pageHeight="1169" math="0" shadow="0">
      <root>
        <mxCell id="WIyWlLk6GJQsqaUBKTNV-0" />
        <mxCell id="WIyWlLk6GJQsqaUBKTNV-1" parent="WIyWlLk6GJQsqaUBKTNV-0" />
        <mxCell id="kDoEpSj2TXCKMhym2IbO-12" style="edgeStyle=orthogonalEdgeStyle;rounded=0;orthogonalLoop=1;jettySize=auto;html=1;exitX=0.5;exitY=1;exitDx=0;exitDy=0;entryX=0.5;entryY=0;entryDx=0;entryDy=0;" edge="1" parent="WIyWlLk6GJQsqaUBKTNV-1" source="WIyWlLk6GJQsqaUBKTNV-3" target="kDoEpSj2TXCKMhym2IbO-1">
          <mxGeometry relative="1" as="geometry" />
        </mxCell>
        <mxCell id="WIyWlLk6GJQsqaUBKTNV-3" value="(0) Grade(int score)" style="rounded=1;whiteSpace=wrap;html=1;fontSize=12;glass=0;strokeWidth=1;shadow=0;" parent="WIyWlLk6GJQsqaUBKTNV-1" vertex="1">
          <mxGeometry x="160" y="80" width="120" height="40" as="geometry" />
        </mxCell>
        <mxCell id="kDoEpSj2TXCKMhym2IbO-13" style="edgeStyle=orthogonalEdgeStyle;rounded=0;orthogonalLoop=1;jettySize=auto;html=1;exitX=0.5;exitY=1;exitDx=0;exitDy=0;" edge="1" parent="WIyWlLk6GJQsqaUBKTNV-1" source="kDoEpSj2TXCKMhym2IbO-1" target="kDoEpSj2TXCKMhym2IbO-2">
          <mxGeometry relative="1" as="geometry" />
        </mxCell>
        <mxCell id="kDoEpSj2TXCKMhym2IbO-1" value="(1) int res" style="rounded=1;whiteSpace=wrap;html=1;" vertex="1" parent="WIyWlLk6GJQsqaUBKTNV-1">
          <mxGeometry x="160" y="160" width="120" height="40" as="geometry" />
        </mxCell>
        <mxCell id="kDoEpSj2TXCKMhym2IbO-14" style="edgeStyle=orthogonalEdgeStyle;rounded=0;orthogonalLoop=1;jettySize=auto;html=1;exitX=1;exitY=0.5;exitDx=0;exitDy=0;" edge="1" parent="WIyWlLk6GJQsqaUBKTNV-1" source="kDoEpSj2TXCKMhym2IbO-2" target="kDoEpSj2TXCKMhym2IbO-4">
          <mxGeometry relative="1" as="geometry" />
        </mxCell>
        <mxCell id="kDoEpSj2TXCKMhym2IbO-15" style="edgeStyle=orthogonalEdgeStyle;rounded=0;orthogonalLoop=1;jettySize=auto;html=1;exitX=0.5;exitY=1;exitDx=0;exitDy=0;entryX=0.5;entryY=0;entryDx=0;entryDy=0;" edge="1" parent="WIyWlLk6GJQsqaUBKTNV-1" source="kDoEpSj2TXCKMhym2IbO-2" target="kDoEpSj2TXCKMhym2IbO-5">
          <mxGeometry relative="1" as="geometry" />
        </mxCell>
        <mxCell id="kDoEpSj2TXCKMhym2IbO-2" value="(2)&lt;div&gt;score &amp;lt; 0 ||&amp;nbsp;&lt;/div&gt;&lt;div&gt;score &amp;gt; 10&lt;/div&gt;" style="rhombus;whiteSpace=wrap;html=1;" vertex="1" parent="WIyWlLk6GJQsqaUBKTNV-1">
          <mxGeometry x="145" y="240" width="150" height="90" as="geometry" />
        </mxCell>
        <mxCell id="kDoEpSj2TXCKMhym2IbO-28" style="edgeStyle=orthogonalEdgeStyle;rounded=0;orthogonalLoop=1;jettySize=auto;html=1;exitX=1;exitY=0.5;exitDx=0;exitDy=0;" edge="1" parent="WIyWlLk6GJQsqaUBKTNV-1" source="kDoEpSj2TXCKMhym2IbO-3" target="kDoEpSj2TXCKMhym2IbO-10">
          <mxGeometry relative="1" as="geometry" />
        </mxCell>
        <mxCell id="kDoEpSj2TXCKMhym2IbO-3" value="(8) res = &quot;A&quot;" style="rounded=1;whiteSpace=wrap;html=1;" vertex="1" parent="WIyWlLk6GJQsqaUBKTNV-1">
          <mxGeometry x="340" y="380" width="120" height="40" as="geometry" />
        </mxCell>
        <mxCell id="kDoEpSj2TXCKMhym2IbO-4" value="(7) return &quot;I&quot;" style="rounded=1;whiteSpace=wrap;html=1;" vertex="1" parent="WIyWlLk6GJQsqaUBKTNV-1">
          <mxGeometry x="340" y="265" width="120" height="40" as="geometry" />
        </mxCell>
        <mxCell id="kDoEpSj2TXCKMhym2IbO-16" style="edgeStyle=orthogonalEdgeStyle;rounded=0;orthogonalLoop=1;jettySize=auto;html=1;exitX=1;exitY=0.5;exitDx=0;exitDy=0;" edge="1" parent="WIyWlLk6GJQsqaUBKTNV-1" source="kDoEpSj2TXCKMhym2IbO-5" target="kDoEpSj2TXCKMhym2IbO-3">
          <mxGeometry relative="1" as="geometry" />
        </mxCell>
        <mxCell id="kDoEpSj2TXCKMhym2IbO-18" style="edgeStyle=orthogonalEdgeStyle;rounded=0;orthogonalLoop=1;jettySize=auto;html=1;exitX=0.5;exitY=1;exitDx=0;exitDy=0;" edge="1" parent="WIyWlLk6GJQsqaUBKTNV-1" source="kDoEpSj2TXCKMhym2IbO-5" target="kDoEpSj2TXCKMhym2IbO-6">
          <mxGeometry relative="1" as="geometry" />
        </mxCell>
        <mxCell id="kDoEpSj2TXCKMhym2IbO-5" value="(3)&amp;nbsp;&lt;span style=&quot;background-color: initial;&quot;&gt;score &amp;gt;= 9&lt;/span&gt;" style="rhombus;whiteSpace=wrap;html=1;" vertex="1" parent="WIyWlLk6GJQsqaUBKTNV-1">
          <mxGeometry x="149" y="360" width="140" height="80" as="geometry" />
        </mxCell>
        <mxCell id="kDoEpSj2TXCKMhym2IbO-19" style="edgeStyle=orthogonalEdgeStyle;rounded=0;orthogonalLoop=1;jettySize=auto;html=1;exitX=0.5;exitY=1;exitDx=0;exitDy=0;" edge="1" parent="WIyWlLk6GJQsqaUBKTNV-1" source="kDoEpSj2TXCKMhym2IbO-6" target="kDoEpSj2TXCKMhym2IbO-8">
          <mxGeometry relative="1" as="geometry" />
        </mxCell>
        <mxCell id="kDoEpSj2TXCKMhym2IbO-25" style="edgeStyle=orthogonalEdgeStyle;rounded=0;orthogonalLoop=1;jettySize=auto;html=1;exitX=1;exitY=0.5;exitDx=0;exitDy=0;" edge="1" parent="WIyWlLk6GJQsqaUBKTNV-1" source="kDoEpSj2TXCKMhym2IbO-6" target="kDoEpSj2TXCKMhym2IbO-23">
          <mxGeometry relative="1" as="geometry" />
        </mxCell>
        <mxCell id="kDoEpSj2TXCKMhym2IbO-6" value="(4)&amp;nbsp;&lt;span style=&quot;background-color: initial;&quot;&gt;score &amp;gt;= 8&lt;/span&gt;" style="rhombus;whiteSpace=wrap;html=1;" vertex="1" parent="WIyWlLk6GJQsqaUBKTNV-1">
          <mxGeometry x="150" y="480" width="140" height="80" as="geometry" />
        </mxCell>
        <mxCell id="kDoEpSj2TXCKMhym2IbO-20" style="edgeStyle=orthogonalEdgeStyle;rounded=0;orthogonalLoop=1;jettySize=auto;html=1;exitX=0.5;exitY=1;exitDx=0;exitDy=0;" edge="1" parent="WIyWlLk6GJQsqaUBKTNV-1" source="kDoEpSj2TXCKMhym2IbO-8" target="kDoEpSj2TXCKMhym2IbO-9">
          <mxGeometry relative="1" as="geometry" />
        </mxCell>
        <mxCell id="kDoEpSj2TXCKMhym2IbO-26" style="edgeStyle=orthogonalEdgeStyle;rounded=0;orthogonalLoop=1;jettySize=auto;html=1;exitX=1;exitY=0.5;exitDx=0;exitDy=0;" edge="1" parent="WIyWlLk6GJQsqaUBKTNV-1" source="kDoEpSj2TXCKMhym2IbO-8" target="kDoEpSj2TXCKMhym2IbO-22">
          <mxGeometry relative="1" as="geometry" />
        </mxCell>
        <mxCell id="kDoEpSj2TXCKMhym2IbO-8" value="(5) score &amp;gt;= 6.5" style="rhombus;whiteSpace=wrap;html=1;" vertex="1" parent="WIyWlLk6GJQsqaUBKTNV-1">
          <mxGeometry x="150" y="590" width="140" height="80" as="geometry" />
        </mxCell>
        <mxCell id="kDoEpSj2TXCKMhym2IbO-27" style="edgeStyle=orthogonalEdgeStyle;rounded=0;orthogonalLoop=1;jettySize=auto;html=1;exitX=1;exitY=0.5;exitDx=0;exitDy=0;" edge="1" parent="WIyWlLk6GJQsqaUBKTNV-1" source="kDoEpSj2TXCKMhym2IbO-9" target="kDoEpSj2TXCKMhym2IbO-21">
          <mxGeometry relative="1" as="geometry" />
        </mxCell>
        <mxCell id="kDoEpSj2TXCKMhym2IbO-39" style="edgeStyle=orthogonalEdgeStyle;rounded=0;orthogonalLoop=1;jettySize=auto;html=1;exitX=0.5;exitY=1;exitDx=0;exitDy=0;entryX=0;entryY=0.5;entryDx=0;entryDy=0;" edge="1" parent="WIyWlLk6GJQsqaUBKTNV-1" source="kDoEpSj2TXCKMhym2IbO-9" target="kDoEpSj2TXCKMhym2IbO-37">
          <mxGeometry relative="1" as="geometry" />
        </mxCell>
        <mxCell id="kDoEpSj2TXCKMhym2IbO-9" value="(6) score &amp;gt;= 5" style="rhombus;whiteSpace=wrap;html=1;" vertex="1" parent="WIyWlLk6GJQsqaUBKTNV-1">
          <mxGeometry x="150" y="700" width="135" height="80" as="geometry" />
        </mxCell>
        <mxCell id="kDoEpSj2TXCKMhym2IbO-10" value="(13) return res" style="rounded=1;whiteSpace=wrap;html=1;" vertex="1" parent="WIyWlLk6GJQsqaUBKTNV-1">
          <mxGeometry x="530" y="540" width="120" height="40" as="geometry" />
        </mxCell>
        <mxCell id="kDoEpSj2TXCKMhym2IbO-31" style="edgeStyle=orthogonalEdgeStyle;rounded=0;orthogonalLoop=1;jettySize=auto;html=1;exitX=1;exitY=0.5;exitDx=0;exitDy=0;entryX=0.5;entryY=1;entryDx=0;entryDy=0;" edge="1" parent="WIyWlLk6GJQsqaUBKTNV-1" source="kDoEpSj2TXCKMhym2IbO-21" target="kDoEpSj2TXCKMhym2IbO-10">
          <mxGeometry relative="1" as="geometry" />
        </mxCell>
        <mxCell id="kDoEpSj2TXCKMhym2IbO-21" value="(11) res = &quot;D&quot;" style="rounded=1;whiteSpace=wrap;html=1;" vertex="1" parent="WIyWlLk6GJQsqaUBKTNV-1">
          <mxGeometry x="340" y="720" width="120" height="40" as="geometry" />
        </mxCell>
        <mxCell id="kDoEpSj2TXCKMhym2IbO-30" style="edgeStyle=orthogonalEdgeStyle;rounded=0;orthogonalLoop=1;jettySize=auto;html=1;exitX=1;exitY=0.5;exitDx=0;exitDy=0;entryX=0.25;entryY=1;entryDx=0;entryDy=0;" edge="1" parent="WIyWlLk6GJQsqaUBKTNV-1" source="kDoEpSj2TXCKMhym2IbO-22" target="kDoEpSj2TXCKMhym2IbO-10">
          <mxGeometry relative="1" as="geometry" />
        </mxCell>
        <mxCell id="kDoEpSj2TXCKMhym2IbO-22" value="(10) res = &quot;C&quot;" style="rounded=1;whiteSpace=wrap;html=1;" vertex="1" parent="WIyWlLk6GJQsqaUBKTNV-1">
          <mxGeometry x="340" y="610" width="120" height="40" as="geometry" />
        </mxCell>
        <mxCell id="kDoEpSj2TXCKMhym2IbO-29" style="edgeStyle=orthogonalEdgeStyle;rounded=0;orthogonalLoop=1;jettySize=auto;html=1;exitX=1;exitY=0.5;exitDx=0;exitDy=0;entryX=0.25;entryY=0;entryDx=0;entryDy=0;" edge="1" parent="WIyWlLk6GJQsqaUBKTNV-1" source="kDoEpSj2TXCKMhym2IbO-23" target="kDoEpSj2TXCKMhym2IbO-10">
          <mxGeometry relative="1" as="geometry" />
        </mxCell>
        <mxCell id="kDoEpSj2TXCKMhym2IbO-23" value="(9)&amp;nbsp;&lt;span style=&quot;background-color: initial;&quot;&gt;res = &quot;B&quot;&lt;/span&gt;" style="rounded=1;whiteSpace=wrap;html=1;" vertex="1" parent="WIyWlLk6GJQsqaUBKTNV-1">
          <mxGeometry x="340" y="500" width="120" height="40" as="geometry" />
        </mxCell>
        <mxCell id="kDoEpSj2TXCKMhym2IbO-32" value="T" style="text;html=1;align=center;verticalAlign=middle;whiteSpace=wrap;rounded=0;" vertex="1" parent="WIyWlLk6GJQsqaUBKTNV-1">
          <mxGeometry x="280" y="250" width="60" height="30" as="geometry" />
        </mxCell>
        <mxCell id="kDoEpSj2TXCKMhym2IbO-33" value="T" style="text;html=1;align=center;verticalAlign=middle;whiteSpace=wrap;rounded=0;" vertex="1" parent="WIyWlLk6GJQsqaUBKTNV-1">
          <mxGeometry x="280" y="370" width="60" height="30" as="geometry" />
        </mxCell>
        <mxCell id="kDoEpSj2TXCKMhym2IbO-34" value="T" style="text;html=1;align=center;verticalAlign=middle;whiteSpace=wrap;rounded=0;" vertex="1" parent="WIyWlLk6GJQsqaUBKTNV-1">
          <mxGeometry x="280" y="490" width="60" height="30" as="geometry" />
        </mxCell>
        <mxCell id="kDoEpSj2TXCKMhym2IbO-35" value="T" style="text;html=1;align=center;verticalAlign=middle;whiteSpace=wrap;rounded=0;" vertex="1" parent="WIyWlLk6GJQsqaUBKTNV-1">
          <mxGeometry x="280" y="600" width="60" height="30" as="geometry" />
        </mxCell>
        <mxCell id="kDoEpSj2TXCKMhym2IbO-36" value="T" style="text;html=1;align=center;verticalAlign=middle;whiteSpace=wrap;rounded=0;" vertex="1" parent="WIyWlLk6GJQsqaUBKTNV-1">
          <mxGeometry x="280" y="710" width="60" height="30" as="geometry" />
        </mxCell>
        <mxCell id="kDoEpSj2TXCKMhym2IbO-40" style="edgeStyle=orthogonalEdgeStyle;rounded=0;orthogonalLoop=1;jettySize=auto;html=1;exitX=1;exitY=0.5;exitDx=0;exitDy=0;entryX=0.75;entryY=1;entryDx=0;entryDy=0;" edge="1" parent="WIyWlLk6GJQsqaUBKTNV-1" source="kDoEpSj2TXCKMhym2IbO-37" target="kDoEpSj2TXCKMhym2IbO-10">
          <mxGeometry relative="1" as="geometry" />
        </mxCell>
        <mxCell id="kDoEpSj2TXCKMhym2IbO-37" value="(12) res = &quot;F&quot;" style="rounded=1;whiteSpace=wrap;html=1;" vertex="1" parent="WIyWlLk6GJQsqaUBKTNV-1">
          <mxGeometry x="340" y="800" width="120" height="40" as="geometry" />
        </mxCell>
      </root>
    </mxGraphModel>
  </diagram>
</mxfile>
